<svg xmlns="http://www.w3.org/2000/svg" width="80" height="80">
    <path fill="#F5F5F5" fill-rule="evenodd" d="M40 0c22.091 0 40 17.909 40 40 0 22.092-17.909 40-40 40S0 62.092 0 40C0 17.909 17.909 0 40 0z"/>
    <path fill="#FF4081" fill-rule="evenodd" d="M59.017 62.996H25.005c-2.755 0-4.996-2.14-4.996-4.771V16.958a.89.89 0 0 1 .287-.678.992.992 0 0 1 1.352.005l2.721 2.599 2.722-2.599a.994.994 0 0 1 1.359 0l2.722 2.599 2.722-2.599a.993.993 0 0 1 1.358 0l2.722 2.599 2.722-2.599a.994.994 0 0 1 1.359 0l2.722 2.599 2.722-2.599a.994.994 0 0 1 1.359 0l2.721 2.599 2.722-2.599a.995.995 0 0 1 1.047-.199c.359.142.652.543.652.914v22h7c.531 0 1 .493 1 1l.014 18.225c0 2.631-2.242 4.771-4.997 4.771zm-4.995-4.771V39.531a.195.195 0 0 1-.002-.025V19.149l-1.761 1.682a.994.994 0 0 1-1.359 0l-2.721-2.6-2.722 2.6a.994.994 0 0 1-1.359 0l-2.722-2.6-2.722 2.6a.994.994 0 0 1-1.359 0l-2.722-2.6-2.721 2.6a.994.994 0 0 1-1.359 0l-2.722-2.6-2.722 2.6a.994.994 0 0 1-1.359 0l-1.76-1.681v39.075c0 1.619 1.38 2.936 3.075 2.936h30.079a4.614 4.614 0 0 1-1.062-2.936zM62 41h-6l-.057 17.225c0 1.619 1.379 2.936 3.074 2.936 1.696 0 3.075-1.317 3.075-2.936L62 41zM46 30H27v-2h19v2zm-5 6H27v-2h14v2zm-1 2a9 9 0 0 1 9 9 9 9 0 0 1-9 9 9 9 0 0 1-7.482-14H27v-2h7.349A8.956 8.956 0 0 1 40 38zm0 16a7 7 0 1 0 0-14 7 7 0 0 0 0 14zm-1-4.828l5.071-5.071 1.414 1.414-5.071 5.071L39 52l-1.414-1.414-2.829-2.829 1.415-1.414L39 49.172z"/>
</svg>
